<svg xmlns="http://www.w3.org/2000/svg" viewBox="0 0 437.45 63.64"><defs><style>.cls-1{fill:#fff;}</style></defs><title>SDH logga vit</title><g id="Layer_2" data-name="Layer 2"><g id="Layer_1-2" data-name="Layer 1"><path class="cls-1" d="M235.72,19.24c0-3.2.1-6.4,0-9.6-.07-1.76.57-2.3,2.23-2.15,1.19.11,2.4,0,3.6,0,.4,0,1.06-.14,1.16,0,1.89,3.36,3.56,0,5.27-.23,3.3-.37,6.45-.28,9,2,1,.94,1.55,1.19,2.77.18,3.49-2.92,7.49-3.16,11.51-1.28s4.74,5.4,4.78,9.27-.05,7.8.05,11.7c0,1.56-.4,2-2,2-6.35.14-6.35.2-6.35-6.1,0-2.3,0-4.6-.06-6.9s-.77-4.06-3.36-4.08a3.72,3.72,0,0,0-4.05,3.9c-.18,3.49-.29,7-.18,10.48.06,2-.37,2.75-2.57,2.71-5.71-.1-5.7,0-5.72-5.81,0-2.6,0-5.2-.18-7.79-.13-2-1.11-3.42-3.36-3.46-2.4,0-3.88,1.26-4,3.54-.23,3.79-.21,7.59-.17,11.39,0,1.49-.32,2.06-2,2.11-6.38.21-6.37.28-6.37-6Q235.72,22.24,235.72,19.24Z"/><path class="cls-1" d="M115,15.72c0-4.4,0-8.79,0-13.19,0-1.31.2-1.89,1.76-2,6.85-.33,6.85-.4,6.85,6.43,0,5.11,0,5.11,5.15,5.11,6.71,0,6.71,0,6.71-6.6,0-4.9,0-4.71,5-5,2.83-.14,3.68.53,3.6,3.5-.24,8.29-.14,16.58,0,24.88,0,1.81-.4,2.35-2.29,2.35-6.31,0-6.31.08-6.31-6.09,0-6,0-6-6.12-6-5.75,0-5.75,0-5.75,5.7,0,6.59,0,6.53-6.63,6.35-1.6,0-2-.51-2-2C115.09,24.71,115,20.22,115,15.72Z"/><path class="cls-1" d="M83.64,31.05c-2.89,0-6.77,1.13-8.4-.3-1.9-1.66-.56-5.63-.6-8.59-.09-6,0-5.91,6.11-6,2.1,0,2.67.53,2.64,2.64-.1,5.94,0,5.94,5.9,5.43,5.18-.45,8-3.32,8.08-8.17.06-5.05-2.74-8.12-8.06-8.43-3.88-.22-7.79-.2-11.68-.08-2.2.07-3.23-.33-3.09-2.89.22-4,0-4.15,4.2-4,5.56.17,11.17-.69,16.66,1C102.67,4,106.52,9.3,106.15,16.9c-.33,6.82-5.12,12.25-12.06,13.77C90.63,31.43,87.13,31.13,83.64,31.05Z"/><path class="cls-1" d="M195.33,31.21c-3.07,0-5.62-.05-8.16,0-1.14,0-1.55-.71-2.05-1.44a46.28,46.28,0,0,1-3-4.47c-1.06-2-2.64-2.37-4.7-2.25-1.35.08-1.76.59-1.62,1.81a1.93,1.93,0,0,1,0,.3c-.25,6.51-.24,6.44-6.89,6.08-1.6-.09-1.73-.75-1.71-2,.05-3.59.1-7.19,0-10.78-.05-1.71.5-2.25,2.21-2.2,3.89.11,7.79.07,11.68,0,3.23,0,4.88-1.56,4.9-4.36s-1.67-4.48-4.79-4.59c-3.89-.13-7.79-.14-11.68,0-1.86.07-2.54-.49-2.31-2.34a22.46,22.46,0,0,0,0-3c0-.73,0-1.44,1-1.4,5.87.25,11.8-.74,17.6.57,4.25,1,7.45,3.47,8.48,7.9,1.09,4.67-.07,8.77-4.15,11.59-1.3.9-1.15,1.47-.37,2.54C191.62,25.71,193.3,28.26,195.33,31.21Z"/><path class="cls-1" d="M42.81,22.22c3.8,2.08,7.66,3.28,11.89,2.65,1.36-.2,3-.41,3.1-2.22s-1.33-2-2.61-2.35c-2.69-.75-5.39-1.46-8.06-2.28-3.48-1.06-6.08-3-6.46-7a8.73,8.73,0,0,1,5.17-9.26c5.9-2.92,11.83-1.86,17.73.09,1.34.44,1.6,1.28.92,2.53a11.55,11.55,0,0,0-1,2.49C63,8.78,62.16,9.16,60.32,8.21a13.18,13.18,0,0,0-7.85-1.38c-1.47.2-3.14.61-3.26,2.5s1.55,2.19,2.83,2.58c2.38.73,4.83,1.21,7.23,1.88,4.44,1.22,6.84,3.73,7.17,7.41a9.07,9.07,0,0,1-6,9.13C54,33,47.57,32.12,41.35,29.2c-.9-.42-1.43-.93-.79-2.08C41.43,25.56,42.06,23.88,42.81,22.22Z"/><path class="cls-1" d="M329.62,21.86c1.75-4.19,3.42-7.81,4.75-11.56.8-2.26,2-3.22,4.37-2.82a10.14,10.14,0,0,0,2.39,0c1.64-.12,2.43.08,1.56,2.08-2.84,6.58-5.55,13.21-8.21,19.86a2.43,2.43,0,0,1-2.61,1.81c-6.63.16-6.62.21-9.12-5.9-2.18-5.34-4.35-10.69-6.6-16-.6-1.43-.43-1.81,1.21-1.88,6.41-.28,6.41-.34,8.74,5.52C327.21,15.75,328.3,18.52,329.62,21.86Z"/><path class="cls-1" d="M389.41,10c.78-.55,1.23-.93,1.73-1.22,1.81-1.07,4.16-2.68,5.72-1.32,1.37,1.19.35,4,.41,6,0,1.13-.87.8-1.51.88-4.72.59-5.85,1.82-5.91,6.51,0,2.8-.07,5.6,0,8.4,0,1.41-.39,1.85-1.85,1.92-6.5.33-6.5.38-6.5-6.19,0-4.9.15-9.81-.06-14.7-.11-2.49.78-3.18,3-2.87a10.1,10.1,0,0,0,2.4,0C388.59,7.32,389.85,7.6,389.41,10Z"/><path class="cls-1" d="M258,52.65c-.86,2.55-1.42,4.22-2,5.89-.27.76-.56,1.43-1.63,1.41a1.78,1.78,0,0,1-1.93-1.43c-.82-2.45-1.81-4.84-2.68-7.27-.21-.59-.74-1.43.38-1.67.77-.17,1.57-.18,1.9.89.61,2,1.31,3.93,2,6.1,1.35-1.65,1.42-3.61,2.09-5.32.33-.84.47-1.71,1.69-1.75s1.69.64,2,1.74c.5,1.81,1.18,3.56,1.95,5.84.81-2.4,1.54-4.29,2.06-6.24.31-1.15,1-1.52,1.95-1.25,1.29.37.5,1.29.28,1.94-.81,2.35-1.76,4.65-2.54,7a1.78,1.78,0,0,1-1.92,1.43c-1.08,0-1.35-.65-1.62-1.41C259.44,56.87,258.88,55.19,258,52.65Z"/><path class="cls-1" d="M5.8,60A9.09,9.09,0,0,1,.61,58.45c-.76-.48-.73-1-.37-1.78.47-1,1-.64,1.59-.21a6.29,6.29,0,0,0,4.24,1.15,1.64,1.64,0,0,0,1.59-1.13,1.49,1.49,0,0,0-1.09-1.87c-1.2-.47-2.49-.74-3.67-1.25a3.64,3.64,0,0,1,.46-6.94,8.67,8.67,0,0,1,5.86.46c.87.35,1.26.83.82,1.83s-1.08.9-1.86.46a2.58,2.58,0,0,0-1.1-.43c-1.22,0-2.93-.88-3.42.75S5,51.33,6.1,51.83a4.88,4.88,0,0,0,.83.34c2.26.55,4.06,1.68,3.62,4.28S7.85,59.9,5.8,60Z"/><path class="cls-1" d="M274,50.63a21.76,21.76,0,0,1,2.65-1.11,3.57,3.57,0,0,1,4.73,3.19c.19,2,.09,4,.11,6,0,.84-.34,1.25-1.25,1.25S279,59.57,279,58.71c0-1.4,0-2.8,0-4.2s-.61-2.6-2.15-2.7a2.44,2.44,0,0,0-2.72,2.54c-.1,1.39-.09,2.79-.09,4.19,0,1-.45,1.41-1.46,1.38s-1.17-.58-1.17-1.37c0-3.9,0-7.79,0-11.69,0-1,.46-1.41,1.46-1.38s1.2.5,1.19,1.33C274,48,274,49.2,274,50.63Z"/><path class="cls-1" d="M25.72,54.73c0,.9,0,1.79,0,2.69,0,2.77-.09,2.87-2.62,1.72-.94-.43-1.25.27-1.81.46-2.61.91-5-.22-5.43-2.87a50.37,50.37,0,0,1-.19-6c0-.89.41-1.24,1.26-1.27,1,0,1.39.49,1.37,1.47,0,1.39,0,2.79.06,4.18s.5,2.44,2.07,2.38a2.37,2.37,0,0,0,2.48-2.14,40,40,0,0,0,.2-4.17c0-1,.11-1.79,1.43-1.72,1.13.06,1.21.78,1.19,1.64C25.7,52.34,25.72,53.53,25.72,54.73Z"/><path class="cls-1" d="M347.29,54.7c0-.8,0-1.6,0-2.4,0-2.85,0-2.87,2.61-1.73.74.33.92-.43,1.38-.63,3.15-1.44,5.62-.15,6,3.32.19,1.68.08,3.39.11,5.09,0,.87-.1,1.56-1.25,1.6-1.32,0-1.43-.74-1.42-1.73,0-1.2,0-2.4,0-3.6,0-1.62-.56-2.84-2.34-2.79s-2.46,1.21-2.57,2.78c-.09,1.29-.06,2.6,0,3.89,0,1-.25,1.49-1.35,1.45s-1.15-.57-1.15-1.34Q347.29,56.65,347.29,54.7Z"/><path class="cls-1" d="M105.11,60.06a17.14,17.14,0,0,1-1.95-.54c-.76-.3-2-.35-1.64-1.63.41-1.51,1.38-.47,2.14-.29a12.86,12.86,0,0,0,1.74.42,1.3,1.3,0,0,0,1.46-.8c.21-.73-.46-1-1-1.26a11.46,11.46,0,0,0-1.14-.36c-1.47-.48-2.9-1-2.91-2.93a2.85,2.85,0,0,1,1.74-2.88c1.8-.8,3.53-.33,5.22.33.56.22.48.79.18,1.27s-.56.78-1.19.55a9.17,9.17,0,0,0-1.74-.42c-.59-.1-1.33-.17-1.57.46-.34.91.48,1.15,1.13,1.41.28.11.57.18.85.27,1.8.61,3.46,1.42,3,3.75S107,59.75,105.11,60.06Z"/><path class="cls-1" d="M435.83,45.4c.6.19,1.64-.17,1.62,1.11,0,.81-.26,1.3-1.25,1.15A1.29,1.29,0,0,0,434.64,49c0,1.11.91.79,1.53.87s1,.2,1.06.81-.27,1-.81,1c-2.07-.17-1.86,1.22-1.85,2.53,0,1.49,0,3,0,4.48,0,.83-.36,1.25-1.26,1.24s-1.26-.4-1.26-1.26c0-1.89.69-4.24-.17-5.58-1.44-2.23,0-3.64.44-5.36S434.12,45.46,435.83,45.4Z"/><path class="cls-1" d="M123.59,45.42c.57.18,1.62-.29,1.78.88.13,1-.26,1.48-1.38,1.35a1.27,1.27,0,0,0-1.47,1.16c-.2,1.37.86,1,1.58,1.1a.93.93,0,0,1,1,.91c0,.44-.17.86-.64.82-2.51-.21-1.94,1.59-2,3s0,2.59,0,3.89c0,1-.29,1.46-1.38,1.42S120,59.32,120,58.56c0-1.9.74-4.34-.17-5.57-1.6-2.15,0-3.48.33-5.1S121.8,45.49,123.59,45.42Z"/><path class="cls-1" d="M71.27,60c-1.91,0-2.67-1.2-3-3.18s1.35-4.23-1.34-5.48c.68-1.4,1-3.22,2.14-4.09s1.86.29,1.73,1.68c-.1,1.09.75.93,1.42,1s1.49-.12,1.52.92-.87.93-1.49.88c-1.55-.13-1.66.91-1.43,1.9.32,1.36-1.21,3.42,1.21,4,1,.22,1.95.24,1.66,1.41C73.47,59.94,72.35,60,71.27,60Z"/><path class="cls-1" d="M51.85,60c-2,0-2.94-.89-3.29-2.77-.38-2,1.05-4.48-1.33-6.25-.19-.14,1.2-2.56,2-3.78.19-.27,1.61-.4,1.63.59,0,1.61.5,2.39,2.21,2.16.61-.08.86.38.85.95,0,.89-.69.88-1.26.81-2-.22-1.87,1.15-1.65,2.3s-1.13,3.27,1.34,3.58c.91.12,1.7.17,1.53,1.24S52.67,59.87,51.85,60Z"/><path class="cls-1" d="M374.23,60c-2.31,0-3.06-1.34-3.36-3.23s.92-4.06-1.19-5.74c-.24-.19,1.14-2.58,2-3.83.21-.33,1.49-.28,1.52.29.1,1.83.83,2.68,2.7,2.52.12,0,.44.64.43,1,0,.89-.81.71-1.35.7-2-.06-1.59,1.46-1.48,2.51.12,1.2-.88,3,1.26,3.37.84.13,1.69,0,1.59,1.11C376.17,60.05,375,59.84,374.23,60Z"/><path class="cls-1" d="M321.83,54.35c0-.8,0-1.59,0-2.39,0-2,.19-3.68,2.71-1.74.91.7,1.24-.52,2-.6s1.22-.42,1.44.42c.15.55.31,1.41-.4,1.56-3.46.73-3,3.37-3.07,5.85,0,.93.65,2.41-1.21,2.46-2.08.06-1.29-1.57-1.41-2.59A27.76,27.76,0,0,1,321.83,54.35Z"/><path class="cls-1" d="M144.63,54.39c0-.89,0-1.79,0-2.68,0-2.1.43-3.21,2.57-1.44.83.69,1.25-.45,1.92-.52.52-.05,1.18-.7,1.47.17.2.59.47,1.55-.46,1.77-3.47.8-2.82,3.54-3,6-.05,1,.49,2.4-1.4,2.27-1.64-.11-1.05-1.38-1.12-2.25C144.57,56.58,144.63,55.48,144.63,54.39Z"/><path class="cls-1" d="M79.08,52.51c0-1.9,0-3.79,0-5.69,0-.79.17-1.3,1.14-1.33s1.38.4,1.37,1.41c0,3.89,0,7.78,0,11.68,0,.77-.13,1.32-1.12,1.35s-1.39-.45-1.38-1.43C79.1,56.5,79.08,54.51,79.08,52.51Z"/><path class="cls-1" d="M225.15,53c0,1.8,0,3.6,0,5.4,0,.9-.16,1.51-1.3,1.52s-1.23-.7-1.23-1.55c0-3.8,0-7.59,0-11.39,0-.92.15-1.51,1.29-1.51s1.26.67,1.25,1.54C225.14,49,225.15,51,225.15,53Z"/><path class="cls-1" d="M61.75,54.77c0,1.3,0,2.6,0,3.9,0,.85-.34,1.25-1.25,1.27s-1.28-.39-1.28-1.23c0-2.6,0-5.2,0-7.8,0-1,.33-1.49,1.41-1.42.92.06,1.17.55,1.15,1.38C61.73,52.17,61.75,53.47,61.75,54.77Z"/><path class="cls-1" d="M364.82,48.87c-.33.83.59,2.4-1.15,2.19-1.48-.18-.76-1.61-.76-2.45s-.7-2.36.91-2.29C365.62,46.4,364.34,48.07,364.82,48.87Z"/><path class="cls-1" d="M60.45,48A1.43,1.43,0,0,1,59,46.46a1.39,1.39,0,0,1,2.78,0A1.43,1.43,0,0,1,60.45,48Z"/><path class="cls-1" d="M309.64,13.57a12.23,12.23,0,0,0-10.82-6.43c-7.24-.05-12.23,3.27-13.84,8.6a11.85,11.85,0,0,0,6.66,14.64C297.27,33,305.81,31,309,26.3A11.61,11.61,0,0,0,309.64,13.57ZM298.22,24.9c-3.25.13-5.36-2-5.41-5.37s2-5.8,5-5.78,4.95,2.28,5,5.56S301,24.79,298.22,24.9Z"/><path class="cls-1" d="M220.6,8.36c-5.36-2.29-10.56-1.72-15,2.33-4.9,4.44-4.88,13.06,0,17.37,4.29,3.83,12.71,4.69,17.7,1.69.91-.55,3.17-1.14,1.87-2.54s-1.82-4.64-5.09-3-7.14,1.23-8.82-1c-.29-.38-.73-.73-.52-1.3s.83-.42,1.27-.42c2.29,0,4.59,0,6.88,0,2.09,0,4.2-.16,6.28,0s2.47-.8,2.42-2.59C227.39,14,225.1,10.29,220.6,8.36Zm-1.19,8.17c-.2,1.3-2.05.39-3.14.61a6,6,0,0,1-1.2,0,14.47,14.47,0,0,1-2.09,0c-.89-.13-2.29.62-2.56-.66-.22-1.06.74-2,1.7-2.62a5.14,5.14,0,0,1,4.32-.58C218.08,13.72,219.66,14.86,219.4,16.53Z"/><path class="cls-1" d="M373.33,18.8c-.25-8.16-7.91-13.46-16.41-11.17-4.57,1.23-7.83,4-8.85,8.76-1,4.54-.18,8.86,3.67,11.91,5.22,4.13,11,4.08,16.92,1.63,1.1-.46,2.93-1,2.39-2.72-.66-2.12-3.79-3.61-5.36-2.9-2.82,1.27-5.59,1.38-8.18-.54-.53-.39-1.21-.93-1-1.69.22-1,1.15-.53,1.75-.55,2.09-.06,4.19,0,6.28,0s4.2-.16,6.28,0C373,21.78,373.39,20.76,373.33,18.8Zm-8-2.13c-.34.83-1.22.42-1.86.47-.89.06-1.79,0-2.69,0-.7,0-1.4.05-2.09,0-.85-.08-2.11.47-2.42-.53s.56-1.85,1.35-2.5a5.17,5.17,0,0,1,7,.7C365,15.34,365.58,16,365.29,16.67Z"/><path class="cls-1" d="M395,45.5c-1.16,0-1.23.74-1.22,1.6s0,2,0,3.38c-.79-.34-1.23-.53-1.68-.71a4.48,4.48,0,0,0-5.24,1,5.63,5.63,0,0,0-1,6.14c.74,2.07,2.41,2.8,4.37,3.1,1.68.26,3.24-1.64,5.09-.13.57.47,1.12-.48,1.12-1.28,0-3.89,0-7.78,0-11.67C396.38,45.89,396,45.48,395,45.5Zm-4.21,12.24c-1.94-.06-2.78-1.36-2.7-3.2s.92-3,2.93-3,2.59,1.47,2.74,3.06C393.58,56.63,392.65,57.8,390.74,57.74Z"/><path class="cls-1" d="M170.51,51.77a4.4,4.4,0,0,0-4.76-2.33c-1.34.19-2.52,1.28-4,.15-.64-.48-1.42.22-1.42,1.28q0,5.67,0,11.34c0,1,.29,1.44,1.35,1.43s1.29-.62,1.27-1.52,0-2,0-3.25a15.16,15.16,0,0,0,2.38,1,4.66,4.66,0,0,0,5-1.86A5.6,5.6,0,0,0,170.51,51.77Zm-4.58,5.85c-1.93.06-2.84-1.13-3-3,.16-1.78.84-3.1,2.87-3.07s2.75,1.34,2.76,3.14A2.6,2.6,0,0,1,165.93,57.62Z"/><path class="cls-1" d="M34.45,50.4c0-1.2,0-2.09,0-3s.34-1.88-1.14-1.93-1.43,1-1.43,2c0,3.58,0,7.17,0,10.75,0,.77.16,2.16,1,1.58,1.92-1.29,3.44.35,5.11.15,2.47-.29,4.3-1.4,4.69-4.16C43.43,50.82,39.91,48.32,34.45,50.4Zm2.94,7.22a2.6,2.6,0,0,1-2.81-2.81c0-1.75.61-3.15,2.66-3.25s2.77,1.17,3,2.84C40.19,56.38,39.32,57.6,37.39,57.62Z"/><path class="cls-1" d="M216.69,52.07a4.58,4.58,0,0,0-4.33-2.7c-1.63-.06-3.13,1.78-4.92.2-.43-.38-1.05.22-1,1,0,4,0,8,0,12,0,1,.61,1.07,1.37,1.06s1.13-.22,1.12-1c0-1.18,0-2.36,0-3.77a16.5,16.5,0,0,0,2.36,1,4.67,4.67,0,0,0,4.88-1.55A5.55,5.55,0,0,0,216.69,52.07ZM212,57.63a2.7,2.7,0,0,1-3-2.94c0-1.73.8-3.09,2.84-3.17s2.85,1.33,2.89,3.11A2.66,2.66,0,0,1,212,57.63Z"/><path class="cls-1" d="M337,55.56a15.72,15.72,0,0,1,2.38,0c2.93,0,3.41-.91,2.07-3.57-.92-1.82-2.44-2.51-4.58-2.63a5.14,5.14,0,0,0-4.78,3.56,5,5,0,0,0,1.63,5.9c2.15,1.63,4.45,1.37,6.72.21.45-.23,1-.58.72-1.11s-.74-1.13-1.4-.81a5.4,5.4,0,0,1-2.54.71c-1,0-2.27-.26-2.31-1.41C334.85,54.95,336.22,55.68,337,55.56Zm-2.29-2.47c0-1.2,1.21-1.71,2.39-1.72s2.44.51,2.38,1.69c-.08,1.7-1.72.42-2.5,1C336.17,53.56,334.64,54.79,334.67,53.09Z"/><path class="cls-1" d="M309.39,49.74c-.78.23-2,.26-1.88,1.39.23,1.55,1.35.83,2.32.63,1.22-.25,3.09-.74,3.27.91s-1.67.53-2.57.83c-.47.15-1,.09-1.47.23a3.08,3.08,0,0,0-2.46,3A3,3,0,0,0,309,59.8c2,.6,4.14-.85,6.29,0,.68.28.76-.71.77-1.3,0-.9,0-1.8,0-2.7C316,50.35,313.93,48.4,309.39,49.74ZM310.78,58c-.89,0-1.94-.37-1.75-1.52.24-1.49,1.68-1,2.49-1.31.83.22,2-.32,1.89,1C313.27,57.65,312,58,310.78,58Z"/><path class="cls-1" d="M91.43,55.56a30,30,0,0,1,3.88,0c2.05.19,2.06-1,1.72-2.4a5,5,0,0,0-5.63-3.76,5.18,5.18,0,0,0-4.47,5.44c.08,4.14,4.39,6.45,8.24,4.38.54-.29,1.46-.53,1-1.48a1.1,1.1,0,0,0-1.74-.47,3.67,3.67,0,0,1-3.15.33c-.67-.22-1.36-.59-1.25-1.44S90.91,55.58,91.43,55.56ZM89.65,53.9c.22-1.84,1.21-2.51,2.67-2.46a2.17,2.17,0,0,1,2.33,2.33c-.71,0-1.37.11-2,.12C91.66,53.91,90.7,53.9,89.65,53.9Z"/><path class="cls-1" d="M411,51.44a4.16,4.16,0,0,0-2.58-1.86c-2.65-.61-4.86.13-6.1,2.52a5.14,5.14,0,0,0,1,6.56,6.2,6.2,0,0,0,7,.36c.42-.31.88-.62.59-1.16s-.79-1-1.68-.61c-1.85.89-3.58,1-5.08-1.7,2,0,3.37.08,4.74,0,1-.08,2.47.64,2.92-.69A4,4,0,0,0,411,51.44Zm-3.87,2.68c-.89-.64-2.54.66-2.56-1.07,0-1.12,1.24-1.67,2.42-1.67s2.36.5,2.34,1.73C409.29,54.76,407.71,53.36,407.13,54.12Z"/><path class="cls-1" d="M184.26,55.54c1.31,0,1.85-.46,1.56-1.77-.43-1.95-1.26-3.58-3.35-4.15-2.61-.71-4.84,0-6.14,2.38a5.13,5.13,0,0,0,.84,6.57,6.12,6.12,0,0,0,7,.5c.51-.35,1-.69.6-1.4s-.93-.71-1.74-.35c-1.73.77-3.44.88-4.88-1.79C180.52,55.53,182.39,55.49,184.26,55.54Zm-5.83-2.27c-.07-1.23,1.23-1.93,2.58-1.9s2.4.73,2.3,1.85c-.13,1.45-1.67.19-2.3.81C180.05,53.59,178.51,54.64,178.43,53.28Z"/><path class="cls-1" d="M235.75,55.56a10,10,0,0,1,2.68,0c2.92.33,2.54-1.47,2-3.16a4.8,4.8,0,0,0-6.13-2.79,5.21,5.21,0,0,0-3.54,6.6,5,5,0,0,0,6,3.61c1.15-.28,3.25-.28,3-1.72-.32-2.21-2-.26-3.06-.37a2.37,2.37,0,0,0-.59.09c-1.12-.09-2.5-.27-2.52-1.55S235,55.68,235.75,55.56ZM233.47,53c.06-1.23,1.3-1.66,2.47-1.63s2.4.55,2.23,1.83c-.19,1.49-1.71.19-2.36.84C234.95,53.57,233.39,54.72,233.47,53Z"/><path class="cls-1" d="M291.84,49.33a5.33,5.33,0,1,0,5.59,5.09A5.5,5.5,0,0,0,291.84,49.33Zm0,8.35c-1.87,0-2.68-1.13-2.73-2.86s.73-3.13,2.74-3.17,2.83,1.15,2.9,3.19C294.66,56.52,293.9,57.72,291.85,57.68Z"/><path class="cls-1" d="M134.06,49.33a5.49,5.49,0,0,0-5.6,5.07A5.35,5.35,0,0,0,133.84,60a5.15,5.15,0,0,0,5.52-5.35A5.23,5.23,0,0,0,134.06,49.33Zm-.26,8.35c-1.93-.07-2.66-1.29-2.67-2.94,0-1.81.83-3.1,2.86-3.09s2.74,1.31,2.86,3.08C136.66,56.61,135.84,57.75,133.8,57.68Z"/><path class="cls-1" d="M195.6,49.34a5.28,5.28,0,0,0-5.44,5.15,5.43,5.43,0,1,0,10.86,0A5.28,5.28,0,0,0,195.6,49.34Zm.11,8.35c-2,.08-3-1.12-3-2.9s.79-3.07,2.78-3.14,2.93,1.14,3,2.93S197.68,57.6,195.71,57.69Z"/><path class="cls-1" d="M425.48,52.13c-1.43-2.61-3.33-3.33-6.42-2.38-.77.24-2.06.26-1.82,1.43.29,1.5,1.41.75,2.35.57,1.22-.24,3.07-.72,3.25.91s-1.65.53-2.54.84c-.36.13-.79.05-1.18.14-1.73.42-2.9,1.41-2.77,3.31s1.56,2.92,3.41,3a9.7,9.7,0,0,0,2.57-.59c3.32.55,3.35.55,3.31-2.87A15.61,15.61,0,0,0,425.48,52.13ZM420.33,58c-.78,0-1.75-.44-1.54-1.45.34-1.63,1.82-1.19,2.94-1.28.68-.06,1.48-.1,1.38,1.1A2.52,2.52,0,0,1,420.33,58Z"/></g></g></svg>